<svg width="107" height="63" viewBox="0 0 107 63" fill="none" xmlns="http://www.w3.org/2000/svg">
<path d="M24.326 62.86C19.2807 62.86 14.9807 61.914 11.426 60.022C7.92867 58.13 5.234 55.464 3.342 52.024C1.50733 48.584 0.475334 44.542 0.246 39.898C0.188667 37.3753 0.16 34.7093 0.16 31.9C0.16 29.0333 0.188667 26.31 0.246 23.73C0.475334 19.086 1.50733 15.0727 3.342 11.69C5.234 8.30733 7.95733 5.67 11.512 3.778C15.0667 1.886 19.338 0.939997 24.326 0.939997C28.3967 0.939997 31.9227 1.51333 34.904 2.66C37.8853 3.80666 40.322 5.26866 42.214 7.04599C44.1633 8.766 45.5967 10.572 46.514 12.464C47.4887 14.356 48.0047 16.0187 48.062 17.452C48.1193 17.968 47.976 18.398 47.632 18.742C47.288 19.0287 46.8293 19.172 46.256 19.172H41.182C40.6087 19.172 40.1787 19.0573 39.892 18.828C39.6627 18.5987 39.4333 18.1973 39.204 17.624C38.688 16.1333 37.828 14.6713 36.624 13.238C35.4773 11.8047 33.9007 10.6293 31.894 9.712C29.9447 8.73733 27.422 8.25 24.326 8.25C19.7967 8.25 16.1273 9.48267 13.318 11.948C10.566 14.4133 9.07533 18.484 8.846 24.16C8.674 29.2627 8.674 34.3653 8.846 39.468C9.07533 45.2013 10.5947 49.3293 13.404 51.852C16.2133 54.3173 19.8827 55.55 24.412 55.55C27.4507 55.55 30.1453 55.0053 32.496 53.916C34.904 52.7693 36.796 51.0207 38.172 48.67C39.548 46.3193 40.236 43.338 40.236 39.726V36.114H27.336C26.7627 36.114 26.2753 35.942 25.874 35.598C25.53 35.1967 25.358 34.6807 25.358 34.05V31.298C25.358 30.6673 25.53 30.18 25.874 29.836C26.2753 29.4347 26.7627 29.234 27.336 29.234H46.772C47.4027 29.234 47.89 29.4347 48.234 29.836C48.578 30.18 48.75 30.6673 48.75 31.298V39.554C48.75 44.2553 47.7753 48.3547 45.826 51.852C43.934 55.3493 41.1533 58.0727 37.484 60.022C33.8147 61.914 29.4287 62.86 24.326 62.86ZM82.6911 62.86C77.4164 62.86 73.0304 61.8853 69.5331 59.936C66.0931 57.9867 63.4844 55.2633 61.7071 51.766C59.9298 48.2687 58.9551 44.198 58.7831 39.554C58.7258 37.2033 58.6971 34.6807 58.6971 31.986C58.6971 29.2913 58.7258 26.7113 58.7831 24.246C58.9551 19.602 59.9298 15.5313 61.7071 12.034C63.4844 8.53666 66.0931 5.81333 69.5331 3.86399C73.0304 1.91466 77.4164 0.939997 82.6911 0.939997C86.6471 0.939997 90.1158 1.48466 93.0971 2.574C96.0784 3.66333 98.5438 5.12533 100.493 6.96C102.5 8.79466 104.019 10.8587 105.051 13.152C106.083 15.388 106.656 17.71 106.771 20.118C106.828 20.634 106.656 21.064 106.255 21.408C105.911 21.752 105.481 21.924 104.965 21.924H100.235C99.7191 21.924 99.2604 21.7807 98.8591 21.494C98.5151 21.2073 98.2571 20.6913 98.0851 19.946C97.1104 15.474 95.2758 12.4067 92.5811 10.744C89.9438 9.08133 86.6184 8.25 82.6051 8.25C78.0184 8.25 74.3778 9.56867 71.6831 12.206C68.9884 14.786 67.5264 18.9427 67.2971 24.676C67.1251 29.3773 67.1251 34.1933 67.2971 39.124C67.5264 44.8573 68.9884 49.0427 71.6831 51.68C74.3778 54.26 78.0184 55.55 82.6051 55.55C86.6184 55.55 89.9438 54.7187 92.5811 53.056C95.2758 51.3933 97.1104 48.326 98.0851 43.854C98.2571 43.1087 98.5151 42.5927 98.8591 42.306C99.2604 42.0193 99.7191 41.876 100.235 41.876H104.965C105.481 41.876 105.911 42.048 106.255 42.392C106.656 42.736 106.828 43.166 106.771 43.682C106.656 46.09 106.083 48.4407 105.051 50.734C104.019 52.97 102.5 55.0053 100.493 56.84C98.5438 58.6747 96.0784 60.1367 93.0971 61.226C90.1158 62.3153 86.6471 62.86 82.6911 62.86Z" fill="white"/>
</svg>
